<?xml version="1.0" encoding="utf-8"?>
<!-- Generator: Adobe Illustrator 27.5.0, SVG Export Plug-In . SVG Version: 6.00 Build 0)  -->
<svg version="1.1" xmlns="http://www.w3.org/2000/svg" xmlns:xlink="http://www.w3.org/1999/xlink" x="0px" y="0px"
	 viewBox="0 0 1000 500" style="enable-background:new 0 0 1000 500;" xml:space="preserve">
<g id="BACKGROUND">
	<rect style="fill:#EBEEEF;" width="1000" height="500"/>
</g>
<g id="OBJECTS">
	<g>
		<rect y="351.022" style="opacity:0.1;fill:#502960;" width="1000" height="148.978"/>
		<rect y="335.375" style="opacity:0.2;fill:#502960;" width="1000" height="15.647"/>
	</g>
	<path style="opacity:0.1;fill:#502960;" d="M269.46,402.252c0.009,4.054-39.42,7.423-88.066,7.524
		c-48.646,0.102-88.088-3.102-88.097-7.156c-0.008-4.054,39.42-7.423,88.066-7.524C230.009,394.994,269.451,398.198,269.46,402.252z
		"/>
	<path style="opacity:0.1;fill:#502960;" d="M487.47,401.796c0.008,4.054-39.42,7.423-88.066,7.524
		c-48.646,0.102-88.088-3.102-88.096-7.156c-0.008-4.054,39.42-7.423,88.066-7.524C448.019,394.538,487.461,397.742,487.47,401.796z
		"/>
	<path style="opacity:0.1;fill:#502960;" d="M700.779,401.349c0.008,4.054-39.42,7.423-88.066,7.524
		c-48.646,0.102-88.088-3.102-88.096-7.156c-0.009-4.054,39.42-7.423,88.066-7.524C661.328,394.092,700.771,397.296,700.779,401.349
		z"/>
	<path style="opacity:0.1;fill:#502960;" d="M909.622,400.912c0.009,4.054-39.42,7.423-88.066,7.524
		c-48.646,0.102-88.088-3.102-88.096-7.156c-0.008-4.054,39.42-7.423,88.066-7.524C870.172,393.655,909.614,396.859,909.622,400.912
		z"/>
	<circle style="fill:#FFFFFF;" cx="179.798" cy="447.556" r="24.941"/>
	<rect x="380.296" y="422.152" style="fill:#FFFFFF;" width="37.91" height="50.809"/>
	<polygon style="fill:#FFFFFF;" points="840.239,472.961 802.33,472.961 812.33,447.551 802.33,422.152 840.239,422.152 
		830.239,447.556 	"/>
	<polygon style="fill:#FFFFFF;" points="613.718,470.192 588.447,424.92 638.989,424.92 	"/>
	<g>
		<path style="fill:#502960;" d="M167.181,120.46c0,0-15.629-3.325-16.295-13.967c-7.648-0.333-13.634-10.641-8.646-17.957
			c-10.974-4.988-9.311-18.29,0.333-20.285c-1.663-13.302,16.96-24.275,23.611-16.627c6.651-8.979,29.929-7.981,30.261,5.986
			c8.979-0.665,14.632,8.646,11.639,13.634c9.311,1.33,10.309,17.625,1.33,21.615c4.988,6.983-3.658,31.259-26.271,23.943"/>
		<path style="fill:#FAD0A5;" d="M175.139,282.55c-4.38,28.61-14.28,43.45-13.53,48.56c0.76,5.19,0.6,11.5-0.01,18.07
			c-1.73,18.36-7.05,38.82-6.14,43.05c1.23,5.75,3.69,11.49-6.98,11.49c-6.56,0-36.92,0.82-38.15-0.82
			c-0.62-0.82-0.61-2.38,0.69-3.93c0.34-0.4,0.77-0.81,1.31-1.2c0.52-0.38,1.15-0.76,1.89-1.11c1.33-0.62,3.02-1.17,5.14-1.55
			c9.02-1.65,17.64-7.39,17.64-7.39s-1.23-31.59-0.82-61.53c0.29-21.07,0.87-41.24,1.19-51.35c0.13-4.26,0.22-6.73,0.22-6.73
			c8.2-9.85,26.48-8.79,38.79,4.34C176.049,275.99,175.629,279.36,175.139,282.55z"/>
		<path style="fill:#FAD0A5;" d="M249.409,402.9c-0.57,0.75-7.24,0.98-14.95,1.01c-9.11,0.05-19.65-0.19-23.2-0.19
			c-10.67,0-8.21-5.74-6.98-11.49c0.9-4.19-4.33-24.37-6.1-42.62c-0.64-6.73-0.82-13.19-0.05-18.5c0.74-5.09-9.07-19.83-13.48-48.23
			c-0.51-3.29-0.95-6.77-1.29-10.43c12.31-13.13,30.58-14.19,38.79-4.34c0,0,0.15,4.16,0.35,10.98c0.33,10.92,0.81,28.66,1.06,47.1
			c0.41,29.94-0.82,61.53-0.82,61.53s8.62,5.74,17.64,7.39C249.409,396.75,250.639,401.26,249.409,402.9z"/>
		<path style="fill:#FAB799;" d="M176.379,272.45c-0.33,3.54-0.75,6.91-1.24,10.1c-5.66-0.36-11.31-0.99-16.91-1.9
			c-7.15-1.15-14.3-2.79-20.86-5.81c0.13-4.26,0.22-6.73,0.22-6.73C145.789,258.26,164.069,259.32,176.379,272.45z"/>
		<path style="fill:#FAB799;" d="M222.499,279.09c-12.43,2.64-25.14,3.91-37.85,3.79c-0.51-3.29-0.95-6.77-1.29-10.43
			c12.31-13.13,30.58-14.19,38.79-4.34C222.149,268.11,222.299,272.27,222.499,279.09z"/>
		<path style="fill:#502960;" d="M222.139,268.53c-8.31,2.32-31.76,7.69-42.07,8.02c-10.31,0.33-30.18-5.45-42.48-8.44
			c-1.03-5.65-1-13.77-0.73-20.31c0.26-6.17,0.73-10.95,0.73-10.95h83.8c0,0,0.6,6.23,0.89,14.07v0.01
			C222.499,256.54,222.559,262.96,222.139,268.53z"/>
		<path style="opacity:0.2;fill:#502960;" d="M222.279,250.92v0.01c-19.5,8.55-42.16,9.32-63.15,4.95
			c-7.74-1.61-15.57-4.02-22.27-8.08c0.26-6.17,0.73-10.95,0.73-10.95h83.8C221.389,236.85,221.989,243.08,222.279,250.92z"/>
		<path style="fill:#FAD0A5;" d="M246.969,233.63c-1.63,18.83-6.99,27.95-8.85,28.89c-1.87,0.93-2.62-1.5-2.62-1.5
			s-0.93,1.87-2.61,1.5c-1.68-0.38-0.93-2.62-0.93-2.62s-2.05,1.87-3.55,0.94c-1.49-0.94-0.37-3.17-0.37-3.17s-2.05,0.93-2.8-1.12
			c-0.75-2.06,1.49-7.09,1.49-7.09s-1.59-1.84-1.3-2.62c0.28-0.76,0.57-1.54,0.85-2.32c1.04-2.88,2.04-5.81,2.35-8
			c0.16-1.15,0.31-2.79,0.39-4.83c0.4-10.29-0.81-30.62-8.96-48.46c0,0-1.47,15.73,0.02,23.2c1.11,5.57,1.32,18.43-2.21,28.22
			c-1.19,3.31,5.25,4.8,1.67,6.78c-2.8,1.55-7.22,2.84-12.6,3.84c-21.77,4.05-51.07,2.34-59.9-4.53c-0.51-0.4-5.08,0.71-5.53,0.27
			c-10.81-10.64-8.16-34.54-4.82-57.98c-6.88,19.38-7.66,42.81-6.95,51.68c0.06,0.7,0.13,1.3,0.2,1.81
			c0.32,2.21,1.33,5.19,2.39,8.09c0.27,0.75,0.54,1.5,0.81,2.23c0.29,0.78-1.3,2.62-1.3,2.62l0.01,0.01
			c0.11,0.26,2.21,5.08,1.48,7.08c-0.75,2.05-2.8,1.12-2.8,1.12s1.12,2.23-0.37,3.17c-1.49,0.93-3.55-0.94-3.55-0.94
			s0.75,2.24-0.93,2.62c-1.68,0.37-2.61-1.5-2.61-1.5s-1.38,1.66-3.24,0.73c-1.87-0.94-6.32-9.29-7.96-28.12
			c-2.28-26.17,2.31-69.19,15.41-87.9c13.09-18.71,36.68-22.71,36.68-22.71l0.31-11.72l25.47-2.05l2.05,12.54
			c0,0,30.1,10.13,40.41,26.08C246.159,169.48,249.249,207.46,246.969,233.63z"/>
		<path style="fill:#FAB799;" d="M229.019,231.69c0.4-10.29-0.81-30.62-8.96-48.46c0,0,2.47,13.6,3.96,21.07
			c1.11,5.57-0.407,19.73-3.937,29.52l-13.143,11.45c-41.66-3.38-58.79-4.53-58.79-4.53l-7.474-0.279
			c-10.81-10.64-7.326-33.991-3.986-57.431c-6.88,19.38-7.66,42.81-6.95,51.68c-5.51-11.44-13.38-40.41,10.38-90.81
			c33.48,54.23,77.47,3.6,77.47,3.6S245.629,195.41,229.019,231.69z"/>
		<path style="fill:#FAD0A5;" d="M158.376,80.145c-1.154,13.4-5.438,21.907,2.427,33.455c7.865,11.548,33.226,6.492,35.464-6.533
			c2.238-13.024-0.953-24.999-3.837-33.935C189.546,64.197,160.196,59.014,158.376,80.145z"/>
		<path style="fill:#451D3A;" d="M168.062,87.986c-0.067-1.055-0.793-1.868-1.622-1.815c-0.829,0.053-1.446,0.951-1.379,2.006
			c0.067,1.055,0.794,1.868,1.622,1.815C167.512,89.939,168.13,89.041,168.062,87.986z"/>
		<path style="fill:#451D3A;" d="M185.512,87.158c-0.067-1.055-0.794-1.868-1.622-1.815c-0.829,0.053-1.446,0.951-1.379,2.006
			c0.067,1.055,0.794,1.868,1.622,1.815C184.962,89.111,185.579,88.213,185.512,87.158z"/>
		<path style="fill:#451D3A;" d="M162.817,85.386c-0.263,0-0.525-0.103-0.722-0.308c-0.382-0.398-0.37-1.029,0.028-1.412
			c0.184-0.177,4.564-4.322,9.494-2.775c0.527,0.165,0.82,0.726,0.655,1.253c-0.165,0.527-0.726,0.82-1.253,0.655
			c-3.79-1.185-7.474,2.274-7.511,2.31C163.314,85.294,163.065,85.386,162.817,85.386z"/>
		<path style="fill:#451D3A;" d="M189.375,84.581c-0.276,0-0.552-0.114-0.749-0.337c-2.878-3.25-7.473-1.981-7.667-1.925
			c-0.53,0.153-1.084-0.153-1.238-0.683c-0.153-0.53,0.15-1.083,0.679-1.238c0.243-0.072,5.995-1.692,9.724,2.52
			c0.366,0.413,0.328,1.046-0.085,1.412C189.847,84.498,189.611,84.581,189.375,84.581z"/>
		<path style="fill:#FAAD98;" d="M168.629,98.71c0.136,2.138-1.487,3.982-3.625,4.119c-2.138,0.136-3.982-1.487-4.119-3.625
			c-0.136-2.138,1.487-3.982,3.625-4.119C166.649,94.949,168.493,96.571,168.629,98.71z"/>
		<path style="fill:#FAAD98;" d="M192.893,97.01c0.136,2.138-1.487,3.982-3.625,4.119c-2.138,0.136-3.982-1.487-4.119-3.625
			c-0.136-2.138,1.487-3.982,3.625-4.119C190.913,93.249,192.757,94.872,192.893,97.01z"/>
		<path style="fill:#451D3A;" d="M176.818,105.448c-0.251,0-0.468-0.189-0.497-0.445c-0.03-0.274,0.168-0.522,0.442-0.552
			c4.934-0.546,5.263-4.146,5.274-4.299c0.021-0.274,0.248-0.48,0.534-0.462c0.274,0.02,0.482,0.256,0.463,0.531
			c-0.003,0.046-0.373,4.584-6.162,5.225C176.855,105.447,176.836,105.448,176.818,105.448z"/>
		<path style="fill:#451D3A;" d="M175.036,99.356c-0.842,0-1.661-0.241-2.138-1.009c-1.097-1.766,1.695-12.551,2.265-14.694
			c0.072-0.268,0.349-0.421,0.612-0.355c0.267,0.071,0.426,0.345,0.355,0.612c-1.625,6.106-2.961,12.979-2.382,13.91
			c0.781,1.258,3.753-0.05,3.783-0.063c0.251-0.115,0.547-0.004,0.662,0.248c0.115,0.251,0.004,0.547-0.247,0.662
			C177.851,98.71,176.414,99.356,175.036,99.356z"/>
		<g>
			<path style="fill:#FAD0A5;" d="M194.991,88.262c0,0,1.275-3.151,4.825-1.9c3.55,1.25,3.521,15.946-4.908,11.389"/>
			<path style="fill:#FAAD98;" d="M198.529,96.291c-0.153,0-0.305-0.07-0.403-0.203c-1.056-1.43-1.471-2.877-1.235-4.3
				c0.377-2.276,2.292-3.628,2.373-3.684c0.227-0.158,0.537-0.101,0.695,0.125c0.158,0.226,0.102,0.538-0.124,0.696
				c-0.017,0.012-1.656,1.179-1.959,3.035c-0.187,1.144,0.168,2.333,1.055,3.535c0.164,0.222,0.117,0.535-0.105,0.699
				C198.736,96.26,198.632,96.291,198.529,96.291z"/>
			<path style="fill:#FAAD98;" d="M199.23,92.508c-0.03,0-0.061-0.002-0.092-0.008l-1.622-0.301c-0.271-0.05-0.451-0.312-0.4-0.583
				c0.05-0.272,0.31-0.454,0.583-0.4l1.622,0.301c0.271,0.05,0.451,0.312,0.4,0.583C199.676,92.34,199.467,92.508,199.23,92.508z"/>
		</g>
		<g>
			<path style="fill:#FAD0A5;" d="M158.018,88.282c0,0-1.652-2.97-5.022-1.293c-3.37,1.677-1.536,16.257,6.27,10.7"/>
			<path style="fill:#FAAD98;" d="M155.432,96.688c-0.083,0-0.167-0.021-0.245-0.064c-0.241-0.135-0.326-0.44-0.191-0.681
				c0.734-1.305,0.94-2.531,0.61-3.646c-0.536-1.812-2.296-2.753-2.314-2.762c-0.245-0.128-0.339-0.431-0.21-0.675
				c0.128-0.244,0.43-0.338,0.675-0.21c0.087,0.046,2.154,1.152,2.808,3.364c0.409,1.384,0.174,2.871-0.698,4.419
				C155.777,96.597,155.607,96.688,155.432,96.688z"/>
			<path style="fill:#FAAD98;" d="M154.272,93.02c-0.212,0-0.409-0.136-0.477-0.349c-0.084-0.263,0.063-0.544,0.326-0.627
				l1.572-0.498c0.266-0.085,0.544,0.063,0.628,0.326c0.084,0.263-0.063,0.544-0.326,0.627l-1.572,0.498
				C154.372,93.013,154.321,93.02,154.272,93.02z"/>
		</g>
		<path style="fill:#FA666C;" d="M225.339,231.05c-1.85,9.24-5.53,20.48-43.72,19.92c-1.71-0.02-3.36-0.06-4.94-0.1
			c-34.3-0.99-40.55-6.86-43.2-19.82c-2.5-12.27,1.1-42.66,2.77-49.8c-0.05-4.99,0.2-11.39,0.56-17.89
			c0.83-14.88,2.28-30.26,2.28-30.26l5.77-3.65c0,0-0.46,35.7,33.72,35.7s33.73-35.55,33.73-35.55l5.77,3.65l1.67,31.41l0.89,16.87
			c0.59,1.74,1.14,3.7,1.65,5.83C225.589,201.04,227.249,221.48,225.339,231.05z"/>
		<path style="fill:#502960;" d="M157.144,77.722c0,0,5.778,0.433,7.511-4.911c3.178,4.478,12.712-2.022,12.278-6.645
			c3.756,4.333,8.234,1.878,8.234,1.878s1.156,13,14.734,9.389c-8.667-16.178-28.746-18.634-28.746-18.634l-17.189,10.689
			L157.144,77.722z"/>
		<path style="fill:#FAAD98;" d="M168.117,116.947c0,0,10.365,3.932,19.777-1.549C179.197,123.381,173.955,123.142,168.117,116.947z
			"/>
		<path style="fill:#FAB799;" d="M155.459,392.23c1.23,5.75,3.69,11.49-6.98,11.49c-6.56,0-36.92,0.82-38.15-0.82
			c-0.62-0.82-0.61-2.38,0.69-3.93l1.31-1.2c0.52-0.38,1.15-0.76,1.89-1.11c-0.36,0.84-0.43,1.73-0.02,2.58
			c0.9,1.87,3.44,2.07,5.52,1.99c7.83-0.26,15.67-0.53,23.5-0.8c1.53-0.05,3.11-0.11,4.51-0.75c1.39-0.65,2.56-2.03,2.48-3.56
			c-0.06-0.93-0.56-1.83-0.44-2.76c0.15-1.12,1.15-1.91,1.87-2.79c1.31-1.6,1.79-3.7,2.23-5.73c2.58-11.88,5.15-23.77,7.73-35.66
			C159.869,367.54,154.549,388,155.459,392.23z"/>
		<path style="fill:#FAB799;" d="M234.459,403.91c-9.11,0.05-19.65-0.19-23.2-0.19c-10.67,0-8.21-5.74-6.98-11.49
			c0.9-4.19-4.33-24.37-6.1-42.62c2.49,7.66,5.81,15.24,7.87,23c0.77,2.91,1.37,5.93,0.96,8.9c-0.31,2.31-1.19,4.84,0,6.84
			c1.47,2.49,5.02,2.45,7.89,2.1c-1.61,1.4-3.23,2.8-4.84,4.2c-0.46,0.4-0.96,0.85-1.08,1.45c-0.27,1.31,1.25,2.22,2.51,2.65
			C218.939,401.34,226.649,402.79,234.459,403.91z"/>
		<path style="fill:#FAB799;" d="M139.222,330.269c0,0,3.971,5.775,7.7,4.813c3.73-0.962,8.302-7.7,8.302-7.7
			s-6.497,4.933-9.024,4.933C143.674,332.314,139.222,330.269,139.222,330.269z"/>
		<path style="fill:#FAB799;" d="M205.999,328.945c-0.382-0.205,5.535,7.46,10.588,6.617c5.053-0.842,5.294-4.452,5.294-4.452
			S218.993,335.924,205.999,328.945z"/>
		<path style="opacity:0.2;fill:#502960;" d="M176.679,250.87c-34.3-0.99-40.55-6.86-43.2-19.82c-2.5-12.27,1.1-42.66,2.77-49.8
			c-0.05-4.99,0.2-11.39,0.56-17.89c1.37,1.19,2.01,2.97,3.05,4.58c1.67,2.62,3.94,4.85,6.63,6.41c0.94,0.55,1.95,1.03,2.66,1.86
			c2.09,2.43,0.56,6.12-0.89,8.98c-4.49,8.88-7.51,18.7-7.17,28.64c0.33,9.94,4.31,20,11.91,26.41c3.96,3.34,8.72,5.59,13.56,7.42
			C169.869,248.91,173.249,249.98,176.679,250.87z"/>
		<path style="opacity:0.2;fill:#502960;" d="M222.289,187.36c-0.29-0.36-0.59-0.72-0.89-1.08c-1.35-1.62-2.78-3.26-4.66-4.2
			c-3.45-1.72-7.7-0.79-11.27-2.23c-1.05-0.43-2.13-1.22-2.21-2.36c-0.09-1.19,0.95-2.13,1.94-2.81c3.48-2.4,7.49-3.98,10.91-6.47
			c1.43-1.02,2.6-2.21,3.64-3.55l0.89,16.87C221.229,183.27,221.779,185.23,222.289,187.36z"/>
		<path style="fill:#FAAD98;" d="M153.303,130.758c0,0,14.755,0.393,17.706,1.967C168.058,127.414,163.927,128.398,153.303,130.758z
			"/>
		<path style="fill:#FAAD98;" d="M201.699,130.365c0,0-14.755,0.393-17.706,1.967C186.944,127.02,191.076,128.004,201.699,130.365z"
			/>
		<path style="fill:#FAB799;" d="M131.839,249.46l-1.8-4.83c0,0,1.09,0.04,2.29-0.02c0.27,0.75,0.54,1.5,0.81,2.23
			C133.429,247.62,131.839,249.46,131.839,249.46z"/>
		<path style="fill:#FAB799;" d="M228.669,245.39l-1.94,4.07c0,0-1.59-1.84-1.3-2.62c0.28-0.76,0.57-1.54,0.85-2.32L228.669,245.39z
			"/>
		<path style="opacity:0.2;fill:#502960;" d="M159.685,190.463c0,0,29.501-7.08,45.038,2.95
			C186.826,177.089,167.158,184.76,159.685,190.463z"/>
	</g>
	<g>
		<path style="fill:#451D3A;" d="M381.836,107.324c0,0-5.487-0.831-6.152-9.644c-0.665-8.812-1.33-34.418-1.33-34.418
			s23.61-11.14,42.898,0.499c0.166,14.964,1.995,40.736-5.653,43.563"/>
		<path style="fill:#FAB799;" d="M393.568,272.45c-0.33,3.54-0.75,6.91-1.24,10.1c-5.66-0.36-11.31-0.99-16.91-1.9
			c-7.15-1.15-14.3-2.79-20.86-5.81c0.13-4.26,0.22-6.73,0.22-6.73C362.978,258.26,381.258,259.32,393.568,272.45z"/>
		<path style="fill:#FAB799;" d="M439.688,279.09c-12.43,2.64-25.14,3.91-37.85,3.79c-0.51-3.29-0.95-6.77-1.29-10.43
			c12.31-13.13,30.58-14.19,38.79-4.34C439.338,268.11,439.488,272.27,439.688,279.09z"/>
		<g>
			<path style="fill:#98485C;" d="M378.689,388.42c0,7.84,2.89,14.85-1.24,14.85c-4.12,0-46.41,2.06-44.35,0
				c0.65-0.65,3.4-2,6.87-3.61c7.49-3.45,18.34-8.05,18.63-9.18c0.34-1.36-2.49-71.96-3.49-96.53c-0.21-5.19-0.34-8.33-0.34-8.33
				l33.82-1.65C388.589,283.97,378.689,380.59,378.689,388.42z"/>
			<path style="fill:#8A3744;" d="M378.689,388.42c0,7.84,2.89,14.85-1.24,14.85c-4.12,0-46.41,2.06-44.35,0
				c0.65-0.65,3.4-2,6.87-3.61c0.56,0.26,0.67,0.98,0.96,1.53c0.76,1.38,2.64,1.55,4.22,1.54c7.34-0.05,14.72-0.12,21.96-1.31
				c1.78-0.3,3.6-0.67,5.16-1.58c1.57-0.9,2.87-2.43,3.08-4.23c0.15-1.28-0.44-2.76-1.66-3.15c-0.75-0.24-1.55-0.05-2.33-0.01
				c-1.1,0.05-2.32-0.33-2.83-1.31c-0.15-0.29-0.22-0.64-0.1-0.94c0.17-0.43,0.66-0.63,1.11-0.74c1.65-0.42,3.48-0.41,4.85-1.41
				c0.82-0.6,1.37-1.51,1.77-2.44c1.39-3.26,1.17-6.93,1.07-10.47c-0.64-22.7-0.74-45.47-1.1-68.2c-0.04-2.15-0.1-4.4-1.13-6.29
				c-1.95-3.57-6.52-4.58-10.54-5.22c-3.12-0.49-6.23-0.98-9.35-1.48c-0.21-5.19-0.34-8.33-0.34-8.33l33.82-1.65
				C388.589,283.97,378.689,380.59,378.689,388.42z"/>
			<path style="fill:#8A3744;" d="M361.385,337.942c0,0,2.993,2.328,6.651,0C366.041,345.258,362.715,344.592,361.385,337.942z"/>
		</g>
		<g>
			<path style="fill:#98485C;" d="M415.76,388.42c0,7.84-2.89,14.85,1.24,14.85c4.12,0,46.41,2.06,44.35,0
				c-0.65-0.65-3.4-2-6.87-3.61c-7.49-3.45-18.34-8.05-18.63-9.18c-0.34-1.36,2.49-71.96,3.49-96.53c0.21-5.19,0.34-8.33,0.34-8.33
				l-33.82-1.65C405.86,283.97,415.76,380.59,415.76,388.42z"/>
			<path style="fill:#8A3744;" d="M415.76,388.42c0,7.84-2.89,14.85,1.24,14.85c4.12,0,46.41,2.06,44.35,0
				c-0.65-0.65-3.4-2-6.87-3.61c-0.56,0.26-0.67,0.98-0.96,1.53c-0.76,1.38-2.64,1.55-4.22,1.54c-7.34-0.05-14.72-0.12-21.96-1.31
				c-1.78-0.3-3.6-0.67-5.16-1.58c-1.57-0.9-2.87-2.43-3.08-4.23c-0.15-1.28,0.44-2.76,1.66-3.15c0.75-0.24,1.55-0.05,2.33-0.01
				c1.1,0.05,2.32-0.33,2.83-1.31c0.15-0.29,0.22-0.64,0.1-0.94c-0.17-0.43-0.66-0.63-1.11-0.74c-1.65-0.42-3.48-0.41-4.85-1.41
				c-0.82-0.6-1.37-1.51-1.77-2.44c-1.39-3.26-1.17-6.93-1.07-10.47c0.64-22.7,0.74-45.47,1.1-68.2c0.04-2.15,0.1-4.4,1.13-6.29
				c1.95-3.57,6.52-4.58,10.54-5.22c3.12-0.49,6.23-0.98,9.35-1.48c0.21-5.19,0.34-8.33,0.34-8.33l-33.82-1.65
				C405.86,283.97,415.76,380.59,415.76,388.42z"/>
			<path style="fill:#8A3744;" d="M433.064,337.942c0,0-2.993,2.328-6.651,0C428.408,345.258,431.734,344.592,433.064,337.942z"/>
		</g>
		<path style="fill:#502960;" d="M442.609,286.86l-42.06,1.65l-2.06-9.49l-3.3-0.41l-3.71,10.72c0,0-30.52-0.41-39.18,0
			c-0.05-2.11-0.06-4.4-0.04-6.79c0.12-11.67,1-25.89,1.58-34.26c0.31-4.36,0.54-7.13,0.54-7.13c30.13-1.98,83.14,1.2,83.14,1.2
			l0.57,4.99l3.71,32.44L442.609,286.86z"/>
		<path style="opacity:0.2;fill:#502960;" d="M438.089,247.34c-31.56,17.42-69.35,6.49-84.25,0.94c0.31-4.36,0.54-7.13,0.54-7.13
			c30.13-1.98,83.14,1.2,83.14,1.2L438.089,247.34z"/>
		<path style="fill:#98485C;" d="M504.029,117.48c-1.38,1.92-8.76,12.13-8.76,12.13s-2.97,8.37-5.86,11.47
			c-0.92,3.73-5.07,18.11-8.55,30.09c-2.52,8.73-4.7,16.2-4.99,17.35c-3.55,13.74-13.14,20.96-23.95,12.86
			c-5.32-3.99-15.37-26.52-15.52-28.82l0.6,37.15l0.52,32.64c0,0-11.18,3.81-40.44,3.81c-29.26,0-42.7-5.01-42.7-5.01l0.09-47.15
			l0.04-20.56c-0.15,2.3-10.19,24.83-15.51,28.82c-10.81,8.11-20.4,0.89-23.95-12.85c-0.25-0.99-1.87-6.57-3.91-13.62
			c0,0-0.01-0.01-0.01-0.02c-3.63-12.53-8.61-29.68-9.63-33.81c-2.88-3.09-5.85-11.47-5.85-11.47s-7.38-10.21-8.76-12.12
			c-1.39-1.91,1.77-4.04,2.57-3.16c0.8,0.88,7.76,7.83,7.76,7.83s-3.64-7.73-4.57-10.13c-0.93-2.41,2.79-3.31,3.53-2.06
			c0.74,1.24,6.74,10.67,6.74,10.67s-2.2-12.01-1.91-13.84c0.3-1.84,3.56-2.25,3.96-1.25c0.4,1.01,3.5,14.48,3.5,14.48
			s-0.12-10.92,0.29-13.49c0.41-2.56,4.04-2.92,4.32-1.18c0.29,1.74,0.79,20.8,0.79,20.8l2.2,0.35c0,0,4.36-4.93,5.85-6.01
			c1.49-1.07,4.91,0.08,3.38,3.65c-1.53,3.57-7.91,13.53-7.91,13.53l12.74,28.23c0,0,12.86-23.94,19.95-33.25
			c5.39-7.07,35.33-9.35,35.33-9.35s-0.14-2.91-0.27-5.8c-0.02-0.42-0.03-0.85-0.05-1.27c-0.08-1.96-0.15-3.7-0.15-4.24l9.74,0.61
			l0.03-0.45l0.02-0.34l11.25-0.7c0,0.07,0,0.15-0.01,0.25c-0.01,0.97-0.12,3.49-0.22,5.88c-0.01,0.21-0.02,0.41-0.02,0.61
			c-0.12,2.44-0.22,4.57-0.22,4.57s29.94,2.27,35.33,9.34c7.09,9.31,19.95,33.26,19.95,33.26l12.73-28.24c0,0-6.37-9.95-7.9-13.53
			c-1.53-3.57,1.89-4.72,3.38-3.64c1.48,1.07,5.85,6.01,5.85,6.01l2.2-0.36c0,0,0.5-19.06,0.78-20.8c0.29-1.74,3.92-1.38,4.33,1.18
			c0.41,2.57,0.29,13.49,0.29,13.49s3.09-13.47,3.5-14.47c0.4-1.01,3.66-0.59,3.96,1.24c0.29,1.83-1.91,13.84-1.91,13.84
			s6-9.42,6.74-10.67c0.74-1.25,4.45-0.34,3.53,2.06c-0.93,2.41-4.57,10.14-4.57,10.14s6.96-6.95,7.76-7.83
			C502.259,113.45,505.419,115.57,504.029,117.48z"/>
		<path style="fill:#8A3744;" d="M364.759,175.16c-0.97,5.07-4.52,9.18-7.28,13.54c-1.09,1.71-2.07,3.49-3.01,5.3l0.04-20.56
			c-0.15,2.3-10.19,24.83-15.51,28.82c-10.81,8.11-20.4,0.89-23.95-12.85c-0.25-0.99-1.87-6.57-3.91-13.62
			c3.46,6.5,7.65,12.49,13.15,17.4c1.26,1.12,2.66,2.22,4.33,2.49c2.49,0.4,4.88-1.14,6.73-2.85c6.92-6.43,10-15.92,12.25-25.09
			c2.26-9.16,4.07-18.72,9.27-26.6l0.81,7.44c2.61,5.01,4.68,10.32,6.14,15.79C364.759,167.89,365.449,171.58,364.759,175.16z"/>
		<path style="fill:#8A3744;" d="M480.859,171.17c-2.52,8.73-4.7,16.2-4.99,17.35c-3.55,13.74-13.14,20.96-23.95,12.86
			c-5.32-3.99-15.37-26.52-15.52-28.82l0.6,37.15c-2.86-1.78-5.39-3.99-7.36-6.75c-3.97-5.57-5.18-12.64-5.46-19.48
			c-0.28-6.83,0.25-13.72-0.73-20.49l7.52-21.95c4.27,10.01,8.53,20.03,12.8,30.05c1.8,4.23,3.66,8.55,6.75,11.96
			c3.09,3.4,7.7,5.79,12.24,5.02c4.25-0.73,7.57-3.98,10.42-7.22C475.899,177.76,478.469,174.52,480.859,171.17z"/>
		<path style="fill:#8A3744;" d="M394.261,178.627c-0.409-8.411-0.344-16.844,0.196-25.247c0.129-2.014,0.316-4.119,1.401-5.821
			c2.03,12.88-0.599,26.104,0.916,39.054L394.261,178.627z"/>
		<path style="fill:#98485C;" d="M412.069,110.42c-0.07,0.24-0.14,0.49-0.21,0.73c-0.98,3.27-3.23,5.55-6.11,6.98
			c-6.19,3.08-15.25,2.25-20.66-1.01c-2.28-1.38-3.91-3.17-4.41-5.29c-0.24-0.98-0.46-1.92-0.66-2.81
			c-2.63-11.44-2.87-16-1.79-28.43c1.82-21.13,31.17-15.95,34.05-7.01C415.109,82.34,415.619,97.87,412.069,110.42z"/>
		<path style="fill:#451D3A;" d="M387.911,88.429c-0.067-1.055-0.794-1.868-1.622-1.815c-0.829,0.053-1.446,0.951-1.379,2.006
			c0.067,1.055,0.794,1.868,1.622,1.815C387.362,90.382,387.979,89.484,387.911,88.429z"/>
		<path style="fill:#451D3A;" d="M405.361,87.601c-0.067-1.055-0.794-1.868-1.622-1.815c-0.829,0.053-1.446,0.951-1.379,2.006
			c0.067,1.055,0.794,1.868,1.622,1.815C404.811,89.555,405.428,88.656,405.361,87.601z"/>
		<path style="fill:#FA666C;" d="M386.939,96.797c0.136,2.138-1.487,3.982-3.625,4.119c-2.138,0.136-3.982-1.487-4.119-3.625
			c-0.136-2.138,1.487-3.982,3.625-4.119C384.958,93.035,386.802,94.658,386.939,96.797z"/>
		<path style="fill:#FA666C;" d="M413.182,96.721c0.136,2.138-1.487,3.982-3.625,4.119c-2.138,0.136-3.982-1.487-4.119-3.625
			c-0.136-2.138,1.487-3.982,3.625-4.119C411.202,92.959,413.046,94.582,413.182,96.721z"/>
		<path style="fill:#451D3A;" d="M396.585,104.038c-1.796,0-3.979-0.589-6.499-2.345c-0.226-0.158-0.282-0.47-0.124-0.696
			c0.158-0.226,0.468-0.282,0.696-0.124c6.83,4.761,10.696,0.285,10.857,0.091c0.177-0.213,0.493-0.241,0.704-0.064
			c0.212,0.176,0.242,0.49,0.067,0.702C402.255,101.638,400.211,104.038,396.585,104.038z"/>
		<g>
			<path style="fill:#98485C;" d="M413.807,87.844c0,0,1.275-3.151,4.825-1.9c3.55,1.25,3.521,15.946-4.908,11.389"/>
			<path style="fill:#451D3A;" d="M417.344,95.873c-0.153,0-0.305-0.07-0.403-0.203c-1.056-1.43-1.471-2.877-1.235-4.3
				c0.377-2.276,2.292-3.627,2.373-3.684c0.227-0.158,0.538-0.102,0.695,0.125c0.158,0.226,0.102,0.538-0.124,0.696
				c-0.017,0.012-1.656,1.179-1.959,3.035c-0.187,1.143,0.168,2.332,1.055,3.534c0.164,0.222,0.117,0.535-0.105,0.699
				C417.551,95.842,417.447,95.873,417.344,95.873z"/>
			<path style="fill:#451D3A;" d="M418.046,92.09c-0.03,0-0.061-0.002-0.092-0.008l-1.622-0.301c-0.272-0.05-0.451-0.312-0.4-0.583
				c0.05-0.271,0.31-0.453,0.583-0.4l1.622,0.301c0.271,0.05,0.451,0.312,0.4,0.583C418.492,91.922,418.282,92.09,418.046,92.09z"/>
		</g>
		<g>
			<path style="fill:#98485C;" d="M377.655,87.615c0,0-1.584-3.007-4.991-1.407c-3.407,1.6-1.906,16.218,6.025,10.84"/>
			<path style="fill:#451D3A;" d="M374.891,95.961c-0.087,0-0.175-0.022-0.255-0.07c-0.237-0.141-0.315-0.448-0.175-0.686
				c0.764-1.287,0.997-2.508,0.693-3.63c-0.494-1.823-2.232-2.804-2.25-2.814c-0.242-0.134-0.329-0.439-0.195-0.68
				c0.134-0.242,0.439-0.33,0.68-0.195c0.087,0.048,2.128,1.201,2.731,3.428c0.377,1.392,0.108,2.873-0.798,4.402
				C375.228,95.873,375.062,95.961,374.891,95.961z"/>
			<path style="fill:#451D3A;" d="M373.814,92.267c-0.217,0-0.416-0.142-0.48-0.36c-0.077-0.265,0.075-0.543,0.34-0.62l1.583-0.462
				c0.264-0.077,0.543,0.074,0.62,0.34c0.077,0.265-0.075,0.543-0.34,0.62l-1.583,0.462
				C373.907,92.261,373.861,92.267,373.814,92.267z"/>
		</g>
		<path style="fill:#451D3A;" d="M395.973,98.498c-0.949,0.001-1.886-0.148-2.529-0.46c-0.472-0.229-0.725-0.51-0.854-0.781
			c-0.549,0.015-0.99-0.135-1.346-0.431c-0.656-0.548-0.693-1.383-0.695-1.476c-0.006-0.276,0.213-0.505,0.489-0.511
			c0.321-0.019,0.503,0.211,0.511,0.485c0.001,0.018,0.027,0.48,0.341,0.738c0.22,0.18,0.556,0.236,1,0.165
			c0.145-0.021,0.29,0.018,0.402,0.112c0.111,0.094,0.176,0.232,0.177,0.378c0.002,0.278,0.585,0.62,1.695,0.737
			c1.906,0.199,3.449-0.337,3.513-0.629c-0.03-0.147,0.008-0.302,0.103-0.418c0.095-0.116,0.237-0.186,0.387-0.186
			c0.632,0,1.086-0.134,1.279-0.378c0.18-0.228,0.113-0.521,0.11-0.534c-0.064-0.266,0.098-0.537,0.362-0.604
			c0.265-0.066,0.533,0.086,0.604,0.35c0.021,0.078,0.192,0.776-0.277,1.389c-0.333,0.436-0.884,0.69-1.64,0.759
			c-0.069,0.173-0.198,0.357-0.422,0.532C398.539,98.232,397.245,98.498,395.973,98.498z"/>
		<path style="fill:#451D3A;" d="M377.47,76.241c0,0,9.543-1.656,15.661-5.264c-2.386,6.237-5.43,7.626-5.43,7.626
			s12.201-1.561,17.026-6.214c-0.285,3.317-1.039,5.786-1.039,5.786s7.887-1.881,10.225-6.789c2.338-4.908-7.163-9.074-15.495-8.706
			C390.087,63.048,377.892,64.443,377.47,76.241z"/>
		<path style="fill:#451D3A;" d="M382.666,85.046c-0.498,0-0.929-0.372-0.991-0.878c-0.067-0.548,0.323-1.047,0.871-1.114
			l8.147-0.998c0.551-0.065,1.047,0.323,1.114,0.871c0.067,0.548-0.323,1.047-0.871,1.114l-8.147,0.998
			C382.748,85.044,382.707,85.046,382.666,85.046z"/>
		<path style="fill:#451D3A;" d="M409.771,85.046c-0.059,0-0.118-0.005-0.178-0.016l-8.313-1.496
			c-0.543-0.098-0.905-0.618-0.807-1.162c0.098-0.543,0.613-0.905,1.162-0.807l8.313,1.496c0.543,0.098,0.905,0.618,0.807,1.162
			C410.667,84.707,410.246,85.046,409.771,85.046z"/>
		<path style="fill:#8A3744;" d="M412.069,110.42c-0.07,0.24-0.14,0.49-0.21,0.73c-0.98,3.27-3.23,5.55-6.11,6.98
			c-0.01,0.21-0.02,0.41-0.02,0.61c-1.73,0.73-3.53,1.27-5.35,1.63c-4.52,0.89-9.34,0.71-13.55-1.14c-0.58-0.25-1.14-0.54-1.69-0.84
			c-0.02-0.42-0.03-0.85-0.05-1.27c-2.28-1.38-3.91-3.17-4.41-5.29c-0.24-0.98-0.46-1.92-0.66-2.81c4.58,2.26,9.6,3.64,14.69,4.02
			c0.83,0.07,1.66,0.1,2.5,0.11c2.94,0.03,5.89-0.27,8.76-0.9C408.049,111.81,410.089,111.2,412.069,110.42z"/>
		<path style="fill:#FFBF45;" d="M355.595,128.344l-1.086,45.096l-3.342,67.933c0,0,18.768,10.965,52.297,8.224
			c33.529-2.741,37.747-7.802,37.747-7.802l-4.811-69.235l-2.991-45.059l-6.537-1.476c0,0-2.109,35.005-31.842,35.427
			c-29.733,0.422-32.897-34.373-32.897-34.373L355.595,128.344z"/>
		<path style="fill:#8A3744;" d="M372.557,130.094c-0.784,0.167,20.595,1.415,20.595,1.415S389.536,126.478,372.557,130.094z"/>
		<path style="fill:#8A3744;" d="M398.97,131.823l19.495-2.201C418.465,129.622,397.397,126.792,398.97,131.823z"/>
		<path style="fill:#8A3744;" d="M312.373,128.048c0,0-6.846,2.406-4.811,9.807C308.487,132.859,312.373,128.048,312.373,128.048z"
			/>
		<path style="fill:#8A3744;" d="M297.94,128.788c0,0,7.772-5.181,12.212-5.181C307.007,122.312,299.421,123.607,297.94,128.788z"/>
		<path style="fill:#8A3744;" d="M477.795,127.678c0,0,6.846,2.406,4.811,9.807C481.681,132.489,477.795,127.678,477.795,127.678z"
			/>
		<path style="fill:#8A3744;" d="M492.228,128.418c0,0-7.772-5.181-12.212-5.181C483.161,121.942,490.748,123.237,492.228,128.418z"
			/>
		<path style="opacity:0.2;fill:#502960;" d="M442.609,286.86l-42.06,1.65l-2.06-9.49l-3.3-0.41l-3.71,10.72c0,0-30.52-0.41-39.18,0
			c-0.05-2.11-0.06-4.4-0.04-6.79l36.33,1.43l4.94-18.74l48.27,14.55L442.609,286.86z"/>
		<path style="opacity:0.2;fill:#E52960;" d="M365.768,191.226c0,0,7.698,35.925,56.82,39.591
			C405.726,224.584,365.768,191.226,365.768,191.226z"/>
		<path style="opacity:0.2;fill:#E52960;" d="M370.167,188.293c1.466,0.367,15.03,16.496,57.553,16.13
			C399.127,198.557,370.167,188.293,370.167,188.293z"/>
	</g>
	<g>
		<path style="fill:#451D3A;" d="M590.838,85.543c0,0-4.656-6.651-3.99-14.133c0.665-7.482,4.323-14.299,7.981-13.468
			c1.33-4.157,5.154-2.993,5.154-2.993l-1.663,3.824l6.817-5.321l-0.665,5.154c0,0,9.478-10.309,26.77-4.157
			c-0.333,3.658-0.333,4.822-0.333,4.822s6.318,1.829,10.807,5.986c-1.33,5.986-1.33,9.976-9.145,13.634"/>
		<path style="fill:#FAB799;" d="M701.789,190.08c0,0-0.36,0.17-0.99,0.44c-4.15,1.88-20.02,8.92-21,7.45
			c-2.31-9.73-13.34-16.78-18.4-34.72l-3.33,3.1l-4.94,35.62l-3.94,28.37l-1.53,11.05c0,0-10.8,6.16-33.87,6.23h-1.28
			c-23.07-0.07-33.87-6.23-33.87-6.23l-1.19-8.54l-4.78-34.46l-4.44-32.04l-3.33-3.1c-5.06,17.94-16.09,24.99-18.4,34.72
			c-1.13,1.69-21.99-7.89-21.99-7.89s17.93-46.73,28.64-56.32c10.71-9.58,46.92-10.21,46.92-10.21v-11.84l13.08,2.18l13.09-2.18
			v11.84c0,0,36.2,0.63,46.91,10.21c9.75,8.73,25.47,48.2,28.22,55.24C701.639,189.7,701.789,190.08,701.789,190.08z"/>
		<path style="fill:#FA978D;" d="M591.769,223.11c-3.38,0.23-6.64-0.23-6.64-0.23l5.36,4.31c0,0-0.23,2.68-3.14,2.79
			c-2.37,0.1-3.05-0.5-3.22-0.72c0.3,0.5,1.67,3.09-1.8,3.4c-1.5,0.14-3.28,0.18-4.88,0.19l-4.78-34.46l3.72,8.17l15.96,1.75
			c0,0,1.99,2.57,0.7,4.2c-1.28,1.63-3.96,2.33-3.96,2.33l4.78,3.03C593.869,217.87,595.149,222.88,591.769,223.11z"/>
		<path style="fill:#FA978D;" d="M634.549,223.11c3.38,0.23,6.64-0.23,6.64-0.23l-5.36,4.31c0,0,0.23,2.68,3.14,2.79
			c2.37,0.1,3.05-0.5,3.22-0.72c-0.3,0.5-1.67,3.09,1.8,3.4c1.5,0.14,3.28,0.18,4.88,0.19l4.78-34.46l-3.72,8.17l-15.96,1.75
			c0,0-1.99,2.57-0.7,4.2c1.28,1.63,3.96,2.33,3.96,2.33l-4.78,3.03C632.449,217.87,631.169,222.88,634.549,223.11z"/>
		<path style="fill:#FAB799;" d="M593.846,75.456c-1.966-0.793-11.046,41.555,15.123,42.739
			c26.169,1.183,28.536-23.408,20.909-42.607c-9.074,2.893-20.383,3.288-20.383,3.288l6.181-3.682
			C615.675,75.193,601.341,78.48,593.846,75.456z"/>
		<path style="fill:#451D3A;" d="M603.732,87.103c-0.067-1.055-0.793-1.868-1.622-1.815c-0.829,0.053-1.446,0.951-1.379,2.006
			c0.067,1.055,0.794,1.868,1.622,1.815C603.183,89.056,603.8,88.158,603.732,87.103z"/>
		<path style="fill:#451D3A;" d="M621.385,87.491c-0.067-1.055-0.794-1.868-1.622-1.815c-0.829,0.053-1.446,0.951-1.379,2.006
			c0.067,1.055,0.794,1.868,1.622,1.815C620.835,89.444,621.453,88.546,621.385,87.491z"/>
		<path style="fill:#451D3A;" d="M597.194,85.386c-0.263,0-0.525-0.103-0.722-0.308c-0.382-0.398-0.37-1.029,0.028-1.412
			c0.184-0.177,4.563-4.322,9.494-2.775c0.527,0.165,0.82,0.726,0.655,1.253c-0.165,0.527-0.725,0.82-1.253,0.655
			c-3.791-1.185-7.474,2.274-7.511,2.31C597.692,85.294,597.443,85.386,597.194,85.386z"/>
		<path style="fill:#451D3A;" d="M625.415,85.081c-0.276,0-0.552-0.114-0.749-0.337c-2.879-3.251-7.473-1.981-7.667-1.925
			c-0.53,0.151-1.084-0.153-1.238-0.683c-0.153-0.53,0.15-1.083,0.679-1.238c0.243-0.07,5.995-1.693,9.724,2.52
			c0.366,0.414,0.328,1.046-0.085,1.412C625.887,84.998,625.651,85.081,625.415,85.081z"/>
		<path style="fill:#FA7480;" d="M602.342,97.047c0.136,2.138-1.487,3.982-3.625,4.119c-2.138,0.136-3.982-1.487-4.119-3.625
			c-0.136-2.138,1.487-3.982,3.625-4.119C600.361,93.286,602.205,94.909,602.342,97.047z"/>
		<path style="fill:#FA7480;" d="M628.102,96.511c0.136,2.138-1.487,3.982-3.625,4.119c-2.138,0.136-3.982-1.487-4.119-3.625
			c-0.136-2.138,1.487-3.982,3.625-4.119C626.122,92.75,627.966,94.373,628.102,96.511z"/>
		<g>
			<path style="fill:#FAB799;" d="M632.726,88.919c0,0,1.275-3.151,4.825-1.9c3.55,1.251,3.521,15.946-4.908,11.39"/>
			<path style="fill:#FA978D;" d="M636.263,96.949c-0.153,0-0.305-0.07-0.403-0.203c-1.056-1.43-1.471-2.877-1.235-4.3
				c0.377-2.276,2.292-3.627,2.373-3.684c0.227-0.158,0.537-0.101,0.695,0.125c0.158,0.226,0.102,0.538-0.124,0.696
				c-0.017,0.012-1.656,1.179-1.959,3.035c-0.187,1.144,0.169,2.333,1.055,3.534c0.164,0.222,0.117,0.535-0.105,0.699
				C636.47,96.917,636.366,96.949,636.263,96.949z"/>
			<path style="fill:#FA978D;" d="M636.964,93.165c-0.03,0-0.061-0.002-0.092-0.008l-1.621-0.301c-0.272-0.05-0.451-0.312-0.4-0.583
				c0.05-0.271,0.311-0.453,0.583-0.4l1.622,0.301c0.271,0.05,0.451,0.312,0.4,0.583C637.411,92.998,637.201,93.165,636.964,93.165z
				"/>
		</g>
		<g>
			<path style="fill:#FAB799;" d="M590.74,88.011c0,0-1.652-2.97-5.022-1.293c-3.37,1.677-1.535,16.257,6.27,10.7"/>
			<path style="fill:#FA978D;" d="M588.154,96.418c-0.083,0-0.168-0.021-0.245-0.064c-0.241-0.135-0.326-0.44-0.19-0.681
				c0.734-1.305,0.94-2.531,0.61-3.646c-0.535-1.812-2.296-2.753-2.314-2.762c-0.245-0.128-0.339-0.431-0.21-0.675
				c0.128-0.245,0.43-0.339,0.675-0.21c0.087,0.046,2.154,1.152,2.808,3.365c0.409,1.383,0.174,2.87-0.698,4.419
				C588.499,96.326,588.329,96.418,588.154,96.418z"/>
			<path style="fill:#FA978D;" d="M586.994,92.749c-0.212,0-0.409-0.136-0.477-0.349c-0.083-0.263,0.063-0.544,0.326-0.627
				l1.572-0.498c0.265-0.084,0.544,0.063,0.628,0.326c0.083,0.263-0.063,0.545-0.326,0.628l-1.572,0.497
				C587.094,92.742,587.044,92.749,586.994,92.749z"/>
		</g>
		<path style="fill:#FAB799;" d="M592.769,221.42c-1.43,0.2-10.42-1.33-10.95-1.41c0.45,0.25,7.68,4.16,8.9,5.18
			c1.26,1.05-0.63,3.57-1.89,3.36c-1.23-0.21-8.48-3.21-8.7-3.3c0.2,0.24,3.5,4.18,3.3,5.39c-0.18,1.06-2.68,0.52-6.33-0.3
			c-0.7-0.15-1.44-0.32-2.22-0.49c-1.93-0.42-8.34-1.64-16.05-3.5c-11.55-2.78-26.04-6.98-32.8-12.05
			c-4.89-3.68-5.59-14.37-1.87-23.39c0.11-0.28,0.23-0.56,0.35-0.83c12.85,2.04,21.99,7.89,21.99,7.89l22.72,10.08
			c0,0,2.48-5.18,3.95-6.07c0.01-0.02,0.03-0.02,0.04-0.03c0.84,3.77,1.04,6.1,1.04,6.1s17.05-0.37,18.1,0.26
			c1.05,0.63,1.47,2.51,0.21,3.56c-1.26,1.05-10.34,2.47-10.34,2.47s10.34,2.05,11.6,3.1
			C595.079,218.48,594.239,221.21,592.769,221.42z"/>
		<path style="fill:#FA978D;" d="M570.498,159.315c0,0,5.321,15.519,27.49,12.415C588.677,169.956,570.498,159.315,570.498,159.315z
			"/>
		<path style="fill:#FAB799;" d="M700.269,214.3c-6.08,4.56-18.4,8.42-29.22,11.17c-9.25,2.35-17.41,3.89-19.63,4.38
			c-0.78,0.17-1.52,0.34-2.23,0.49c-3.65,0.82-6.14,1.36-6.32,0.3c-0.2-1.21,3.1-5.15,3.3-5.39c-0.22,0.09-7.47,3.09-8.7,3.3
			c-1.26,0.21-3.15-2.31-1.89-3.36c1.22-1.02,8.45-4.93,8.9-5.18c-0.53,0.08-9.52,1.61-10.95,1.41c-1.47-0.21-2.31-2.94-1.05-3.98
			c1.26-1.05,11.6-3.1,11.6-3.1s-9.08-1.42-10.34-2.47c-1.26-1.05-0.84-2.93,0.21-3.56c1.05-0.63,18.1-0.26,18.1-0.26
			s0.2-2.33,1.04-6.1c0.01,0.01,0.03,0.01,0.04,0.02c1.47,0.9,3.95,6.08,3.95,6.08l22.72-10.08c0,0,8.72-5.58,21.11-7.74
			c0.29-0.05,0.58-0.1,0.88-0.15C705.899,199.27,705.309,210.51,700.269,214.3z"/>
		<path style="fill:#FA978D;" d="M654.228,159.583c0,0-5.321,15.519-27.49,12.415C636.049,170.224,654.228,159.583,654.228,159.583z
			"/>
		<path style="fill:#FA978D;" d="M607.862,133.528l-23.777-2.66C584.085,130.868,607.862,125.048,607.862,133.528z"/>
		<path style="fill:#FA978D;" d="M618.101,133.661l24.316-3.758C642.417,129.902,617.982,126.178,618.101,133.661z"/>
		<path style="fill:#451D3A;" d="M590.536,74.083c0,0,0.596,30.022,0.498,36.37c-0.166,10.75,5.977,10.758,5.977,10.758
			s0.83,4.121,5.313,3.404c2.491,4.121,9.464,1.792,10.793-0.358c4.981,4.113,9.464,0.709,9.962-1.62
			c4.483,3.755,9.464-2.15,9.464-6.45c2.325-0.179,0.83-42.283,0.83-42.283l-3.985,0.179c0,0,2.325,25.8,0.498,32.429
			c-1.864,6.766-12.121,10.392-22.415,9.317c-10.294-1.075-14.445-8.6-14.445-18.812s0.498-23.112,0.498-23.112L590.536,74.083z"/>
		<path style="fill:#451D3A;" d="M610.907,98.045c-0.309,0-0.505-0.032-0.536-0.038c-0.272-0.048-0.454-0.307-0.405-0.579
			c0.048-0.272,0.306-0.457,0.579-0.405c0.092,0.015,2.25,0.341,3.854-1.975c-2.935-1.919-3.989-9.829-4.105-10.774
			c-0.034-0.274,0.161-0.523,0.435-0.557c0.276-0.044,0.523,0.161,0.557,0.435c0.314,2.552,1.645,9.366,4,10.233
			c0.139,0.051,0.247,0.161,0.297,0.299c0.05,0.139,0.037,0.293-0.038,0.42C614.036,97.713,611.897,98.045,610.907,98.045z"/>
		<path style="fill:#FFFFFF;" d="M607.299,100.674c-0.162-0.472,7.316,0.831,7.316,0.831S609.294,106.493,607.299,100.674z"/>
		<path style="fill:#FA978D;" d="M584.178,185.827c5.785-4.736,13.126-7.339,20.556-8.167c7.43-0.829,14.966,0.04,22.26,1.68
			c6.227,1.4,12.589,3.517,17.08,8.053c-0.754-3.164-3.594-5.357-6.404-6.996c-9.651-5.631-21.254-7.84-32.299-6.149
			C596.026,175.679,589.134,177.776,584.178,185.827"/>
		<path style="fill:#FA978D;" d="M558.829,226.35c-11.55-2.78-26.04-6.98-32.8-12.05c-4.89-3.68-5.59-14.37-1.87-23.39
			C526.069,200.51,533.319,215.82,558.829,226.35z"/>
		<path style="fill:#FA978D;" d="M700.269,214.3c-6.08,4.56-18.4,8.42-29.22,11.17c16.81-8.84,25.48-24.06,29.75-34.95
			c0.04-0.1,0.07-0.19,0.11-0.29c0.16-0.42,0.32-0.83,0.46-1.23c0.27,0.7,0.42,1.08,0.42,1.08
			C705.899,199.27,705.309,210.51,700.269,214.3z"/>
		<path style="fill:#FA978D;" d="M613.119,166.683v-20.617C613.119,146.066,609.461,160.032,613.119,166.683z"/>
		<g>
			<path style="fill:#FAB799;" d="M607.239,399.13c0.55,2.87-15.59,3.07-29.26,2.79c-8.73-0.19-16.45-0.57-18.18-0.57
				c-4.43,0,0.89-5.77,8.87-7.54c7.98-1.78,15.52-7.54,17.29-9.31c1.69-1.69-5.8-73.93-7.34-115.05c-0.09-2.25-0.15-4.4-0.2-6.44
				l0.25-8.57l0.2-6.95l9,6.95l20.26,15.66C608.129,270.1,605.469,389.82,607.239,399.13z"/>
			<path style="fill:#FA978D;" d="M607.239,399.13c0.55,2.87-15.59,3.07-29.26,2.79c4.43-1.65,8.77-3.53,13-5.62
				c2.19-1.09,4.41-2.28,5.94-4.19c2.17-2.72,2.55-6.42,2.78-9.89c0.89-13.92,0.53-27.91-1.07-41.77c-0.45-3.86-1.24-8.16-4.4-10.42
				c5.83-8.05,4.97-18.98,3.85-28.86c-0.84-7.47-1.69-14.95-2.53-22.42c-0.16-1.41-0.37-2.93-1.35-3.95
				c-0.76-0.79-1.86-1.14-2.9-1.46c-4.23-1.3-8.46-2.59-12.68-3.89c-0.09-2.25-0.15-4.4-0.2-6.44l0.25-8.57
				c3.06-0.04,6.13-0.04,9.2,0l20.26,15.66C608.129,270.1,605.469,389.82,607.239,399.13z"/>
		</g>
		<g>
			<path style="fill:#FAB799;" d="M618.271,399.13c-0.55,2.87,15.59,3.07,29.26,2.79c8.73-0.19,16.45-0.57,18.18-0.57
				c4.43,0-0.89-5.77-8.87-7.54c-7.98-1.78-15.52-7.54-17.29-9.31c-1.69-1.69,5.8-73.93,7.34-115.05c0.09-2.25,0.15-4.4,0.2-6.44
				l-0.25-8.57l-0.2-6.95l-9,6.95l-20.26,15.66C617.38,270.1,620.041,389.82,618.271,399.13z"/>
			<path style="fill:#FA978D;" d="M618.271,399.13c-0.55,2.87,15.59,3.07,29.26,2.79c-4.43-1.65-8.77-3.53-13-5.62
				c-2.19-1.09-4.41-2.28-5.94-4.19c-2.17-2.72-2.55-6.42-2.78-9.89c-0.89-13.92-0.53-27.91,1.07-41.77
				c0.45-3.86,1.24-8.16,4.4-10.42c-5.83-8.05-4.97-18.98-3.85-28.86c0.84-7.47,1.69-14.95,2.53-22.42
				c0.16-1.41,0.37-2.93,1.35-3.95c0.76-0.79,1.86-1.14,2.9-1.46c4.23-1.3,8.46-2.59,12.68-3.89c0.09-2.25,0.15-4.4,0.2-6.44
				l-0.25-8.57c-3.06-0.04-6.13-0.04-9.2,0l-20.26,15.66C617.38,270.1,620.041,389.82,618.271,399.13z"/>
		</g>
		<path style="fill:#502960;" d="M647.149,263.9c-7.54,0-25.72,7.53-33.7,7.98c-7.98,0.44-18.62-6.21-35.03-8.87
			c-1.45-5.23-0.9-12.89-0.35-17.55c0.28-2.45,0.57-4.07,0.57-4.07c32.14,6.76,69.02,0,69.02,0s0.43,1.17,0.78,3.39
			C649.009,248.47,649.369,255.04,647.149,263.9z"/>
		<path style="fill:#FA978D;" d="M608.13,228.868c0,0,5.321,4.434,11.971-0.887C613.894,227.095,608.13,228.868,608.13,228.868z"/>
		<path style="fill:#FA978D;" d="M568.229,166.35l-3.33-3.1c-5.06,17.94-16.09,24.99-18.4,34.72l-8.424-10.78
			c0,0,18.624-21.73,25.274-33.25C565.119,161.03,568.229,166.35,568.229,166.35z"/>
		<path style="fill:#FA978D;" d="M687.499,185.86l-7.7,12.11c-2.31-9.73-13.34-16.78-18.4-34.72l-3.33,3.1l3.71-15.07
			L687.499,185.86z"/>
		<path style="opacity:0.2;fill:#502960;" d="M648.439,244.78c-22.97,5.76-47.31,6.04-70.37,0.68c0.28-2.45,0.57-4.07,0.57-4.07
			c32.14,6.76,69.02,0,69.02,0S648.089,242.56,648.439,244.78z"/>
		<path style="fill:#FA978D;" d="M584.556,325.363c0,0,2.994,1.711,5.987-0.855C589.474,331.351,587.122,332.42,584.556,325.363z"/>
		<path style="fill:#FA978D;" d="M639.94,325.363c0,0-2.994,1.711-5.988-0.855C635.022,331.351,637.374,332.42,639.94,325.363z"/>
	</g>
	<g>
		<path style="fill:#FAAD49;" d="M841.795,90.954l1.948-9.375l5.723,3.166c0,0-5.114-8.645-5.479-8.888s4.87-8.767-1.583-11.202
			c3.896-2.8,3.409-10.836-0.731-12.541c-3.531,5.357-8.888,9.741-16.194,6.088c-7.305-3.653-23.986-2.192-21.916,6.575
			c-4.992-2.679-14.854,6.453-4.14,28.369C829.985,99.355,841.795,90.954,841.795,90.954z"/>
		<path style="fill:#FAB799;" d="M758.846,258.292c0,0,6.181,0.818,6.545,3.636c0.909,0.364,2.454,0.545,2,2.091
			c-2.545,1-4.818,1.818-4.818,1.818l-4.818-3.909L758.846,258.292z"/>
		<path style="fill:#FAD0A5;" d="M752.368,235.26c0,0-0.44,9.31,0,13.3c0.45,4,0.89,10.41,1.78,14.4c0.88,3.99,6.21,6.65,10.64,7.54
			c4.43,0.88,3.55-3.11,3.55-3.11s-3.55-3.1-5.77-4.43c-2.21-1.33-1.45-10.57-1.45-10.57l3.56,6.08c0,0,2.88,2.05,3.77-1.05
			c0.89-3.1-2.8-17.98-2.8-17.98l0.71-6.8l6.69-64.42l1.5-1.97c0,9.69,4.52,19.56,6.24,28.18c3.11,15.52,3.75,22.44,3.75,22.44
			l-0.18,2.96l-2.12,35.64h75.66l-2.11-41.41c0,0,1.27-4.11,4.37-19.63c0.25-1.23,0.51-2.44,0.79-3.63
			c3.2-13.82,8.14-24.58,8.14-24.58s2.49,2.34,21.99,7.88c28.9,8.21,31.89-7.51,31.89-7.51l9.32-41.65l3.09-13.79
			c3.49-5.68,6.47-13.66,6.47-13.66s7.71-8.69,8.81-10.89c1.1-2.2-1.28-3.49-2.75-2.75c-1.46,0.73-6.79,7.23-6.79,7.23
			s4.21-10.81,5.13-12.83c0.91-2.02-3.12-3.85-4.03-2.75c-0.92,1.1-6.6,12.83-6.6,12.83s2.2-13.38,2.01-15.58
			c-0.18-2.2-4.03-2.56-4.76-1.65c-0.73,0.92-3.3,16.31-3.3,16.31s-1.1-13.74-1.83-16.31c-0.74-2.56-4.4-2.01-4.95-0.91
			c-0.55,1.1-0.38,19.01-0.38,19.01l-0.99,5.99c0,0-6.65-5.43-8.48-5.98c-1.83-0.55-3.67,2.56-1.83,5.31
			c1.83,2.75,7.22,11.92,7.22,11.92l-14.21,41.29c0,0-18.34-6.97-28.43-11.93c-11.18-5.5-42.9-11.24-42.9-11.24l-0.21-2.69
			l-0.79-9.95l-0.03-0.42l-11.39-0.12v-0.01h-0.6v0.01l-11.39,0.12l-0.02,0.51l-0.37,8.97l-0.16,3.94c0,0-32.19,7.4-43.38,12.88
			c-19.61,9.6-15.62,55.15-16.07,60.92C747.938,204.48,752.368,235.26,752.368,235.26z"/>
		<path style="fill:#FAB799;" d="M763.208,219.96c0.71,4.31,1.82,8.52,3.15,12.68l6.69-64.42l1.5-1.97c0,9.69,4.52,19.56,6.24,28.18
			c3.11,15.52,3.75,22.44,3.75,22.44l-0.18,2.96c2.99-3.86,6-7.71,8.46-11.93c5.53-9.45,8.08-20.74,6.43-31.57l-7.65-9.12
			c-7.58-2.73-14.81-6.41-21.47-10.94c-0.14,0.32-0.29,0.63-0.43,0.95c-3.57,7.91-4.61,15.98-5.61,24.6
			C762.608,194.49,761.138,207.37,763.208,219.96z"/>
		<path style="fill:#FAB799;" d="M821.484,173.73c0.428-5.674,0.482-11.376,0.161-17.057c-0.106-1.875-0.314-3.898-1.571-5.293
			c-0.61,3.334-0.618,6.744-0.625,10.133c-0.013,6.61-0.026,13.219-0.039,19.829"/>
		<path style="fill:#FAB799;" d="M843.208,167.64c-0.01,0.42,0.22,0.81,0.44,1.17c3.1,5.03,6.33,9.98,9.69,14.85
			c1.6,2.32,3.3,4.68,5.69,6.18c0.61,0.38,1.25,0.7,1.92,0.96c3.2-13.82,8.14-24.58,8.14-24.58s2.49,2.34,21.99,7.88
			c28.9,8.21,31.89-7.51,31.89-7.51l9.32-41.65c-2.85,7.21-5.69,14.42-8.54,21.64c-1.82,4.59-3.66,9.24-6.5,13.27
			c-2.85,4.04-6.84,7.48-11.64,8.67c-6.12,1.52-12.5-0.77-18.22-3.44c-7.25-3.38-14.17-7.44-21.09-11.48
			c-5.02,6.48-12.55,10.98-20.64,12.34C844.588,166.12,843.218,166.55,843.208,167.64z"/>
		<path style="fill:#FAAD98;" d="M807.988,120.98c2.54,1.78,5.042,3.771,11.282,4.431c6.68,0.71,11.708-1.491,13.308-3.541
			l-0.79-9.95l-23.43,0.09L807.988,120.98z"/>
		<path style="fill:#FAD0A5;" d="M838.314,80.145c1.154,13.4,5.438,21.907-2.427,33.455c-7.865,11.548-33.226,6.492-35.464-6.533
			c-2.238-13.024,0.953-24.999,3.837-33.935C807.144,64.197,836.494,59.014,838.314,80.145z"/>
		<path style="fill:#451D3A;" d="M828.628,87.986c0.067-1.055,0.794-1.868,1.622-1.815c0.829,0.053,1.446,0.951,1.379,2.006
			c-0.067,1.055-0.793,1.868-1.622,1.815C829.178,89.939,828.561,89.041,828.628,87.986z"/>
		<path style="fill:#451D3A;" d="M810.692,87.645c0.067-1.055,0.794-1.868,1.622-1.815c0.829,0.053,1.446,0.951,1.379,2.006
			c-0.067,1.055-0.794,1.868-1.622,1.815S810.625,88.7,810.692,87.645z"/>
		<path style="fill:#FAAD49;" d="M807.437,82.877c0.276,0,0.552-0.114,0.749-0.337c2.879-3.251,7.473-1.981,7.667-1.925
			c0.53,0.153,1.084-0.153,1.238-0.683c0.153-0.53-0.15-1.083-0.679-1.238c-0.244-0.07-5.995-1.691-9.723,2.52
			c-0.366,0.414-0.328,1.046,0.086,1.412C806.965,82.794,807.202,82.877,807.437,82.877z"/>
		<path style="fill:#FAAD98;" d="M828.792,97.614c-0.136,2.138,1.487,3.982,3.625,4.119c2.138,0.136,3.982-1.487,4.119-3.625
			c0.136-2.138-1.487-3.982-3.625-4.119C830.772,93.853,828.928,95.476,828.792,97.614z"/>
		<path style="fill:#FAAD98;" d="M804.041,98.106c-0.136,2.138,1.487,3.982,3.625,4.119c2.138,0.136,3.982-1.487,4.119-3.625
			c0.136-2.138-1.487-3.982-3.625-4.119C806.021,94.345,804.177,95.968,804.041,98.106z"/>
		<g>
			<path style="fill:#FAD0A5;" d="M801.699,88.262c0,0-1.275-3.151-4.825-1.9c-3.55,1.25-3.521,15.946,4.908,11.389"/>
			<path style="fill:#FAAD98;" d="M798.162,96.291c-0.103,0-0.207-0.032-0.296-0.098c-0.222-0.164-0.27-0.477-0.106-0.699
				c0.887-1.202,1.242-2.391,1.055-3.534c-0.303-1.856-1.943-3.023-1.96-3.035c-0.226-0.158-0.281-0.47-0.123-0.696
				c0.158-0.226,0.468-0.283,0.695-0.125c0.081,0.056,1.996,1.408,2.374,3.684c0.236,1.423-0.18,2.87-1.235,4.3
				C798.467,96.221,798.316,96.291,798.162,96.291z"/>
			<path style="fill:#FAAD98;" d="M797.461,92.508c-0.236,0-0.446-0.168-0.491-0.409c-0.05-0.271,0.129-0.533,0.4-0.583l1.621-0.301
				c0.272-0.052,0.533,0.129,0.583,0.4s-0.129,0.533-0.4,0.583l-1.621,0.301C797.522,92.505,797.491,92.508,797.461,92.508z"/>
		</g>
		<g>
			<path style="fill:#FAD0A5;" d="M838.673,88.282c0,0,1.652-2.97,5.022-1.293c3.37,1.677,1.536,16.257-6.27,10.7"/>
			<path style="fill:#FAAD98;" d="M841.258,96.688c-0.175,0-0.344-0.092-0.436-0.255c-0.872-1.549-1.107-3.036-0.698-4.419
				c0.654-2.212,2.721-3.319,2.808-3.365c0.245-0.127,0.545-0.034,0.674,0.21c0.128,0.244,0.035,0.546-0.209,0.675
				c-0.018,0.009-1.789,0.967-2.317,2.771c-0.326,1.112-0.12,2.336,0.613,3.637c0.136,0.24,0.05,0.545-0.19,0.681
				C841.426,96.668,841.341,96.688,841.258,96.688z"/>
			<path style="fill:#FAAD98;" d="M842.419,93.02c-0.05,0-0.101-0.007-0.151-0.023l-1.572-0.498
				c-0.263-0.083-0.409-0.364-0.326-0.627c0.083-0.263,0.363-0.411,0.627-0.326l1.572,0.498c0.263,0.083,0.409,0.364,0.326,0.627
				C842.828,92.884,842.631,93.02,842.419,93.02z"/>
		</g>
		<path style="fill:#FAD0A5;" d="M825.797,271.16c1.21,8.66,5.9,41.64,8.81,55.7c-3.37,15,4.71,48.43,5.05,57.81
			c0.33,9.37-4.38,14.06-2.36,17.81c2.02,3.75,32.66,1.25,41.42,1.25c7.7,0,8.62-3.14,5.29-5.38c-0.45-0.32-0.98-0.61-1.59-0.87
			c-5.05-2.19-23.23-8.75-23.23-8.75s-2.7-6.88-0.68-25.62c2.02-18.75,2.36-40.94,2.36-40.94v-58.12l-35.36,5
			C825.508,269.05,825.608,269.81,825.797,271.16z"/>
		<path style="fill:#FAB799;" d="M839.658,384.67c0.33,9.37-4.38,14.06-2.36,17.81c2.02,3.75,32.66,1.25,41.42,1.25
			c7.7,0,8.62-3.14,5.29-5.38c-0.06,0.13-0.15,0.25-0.25,0.35c-0.69,0.68-1.75,0.79-2.72,0.85c-9.37,0.63-18.75,0.97-28.13,1.04
			c-2.25,0.01-4.6-0.01-6.59-1.07c-1.98-1.06-3.41-3.51-2.57-5.59c1.78-0.27,3.53-0.77,5.18-1.49c-0.23-1.72-2.4-2.26-3.69-3.42
			c-1.33-1.19-1.69-3.11-1.98-4.87c-1.86-11.56-3.73-23.12-4.94-34.76c-0.61-5.83-0.99-12,1.53-17.29c0.62-1.31,1.42-2.54,1.81-3.93
			c0.57-2.02,0.24-4.16-0.09-6.23c-1.28-8.07-2.55-16.13-3.83-24.2c-0.38-2.35-0.55-5.22,1.38-6.61c0.88-0.64,2.01-0.78,3.09-0.91
			c5.39-0.65,10.78-1.3,16.17-1.95c0.82-0.1,1.66-0.2,2.49-0.33v-14.79c-11.67-1.04-23.36-1.7-35.07-1.99
			c1.21,8.66,5.9,41.64,8.81,55.7C831.238,341.86,839.318,375.29,839.658,384.67z"/>
		<path style="fill:#FAD0A5;" d="M756.858,402.72c1.14,0.62,3.02,1.01,5.74,1.01c8.76,0,39.4,2.5,41.42-1.25s-2.7-8.44-2.36-17.81
			c0.34-9.38,8.42-42.81,5.05-57.81c2.93-14.14,7.65-47.46,8.82-55.86c0.17-1.25,0.27-1.95,0.27-1.95l-35.35-5v58.12
			c0,0,0.33,22.19,2.35,40.94c2.02,18.74-0.67,25.62-0.67,25.62s-18.18,6.56-23.23,8.75
			C755.418,398.99,754.338,401.38,756.858,402.72z"/>
		<path style="fill:#FAB799;" d="M756.858,402.72c1.14,0.62,3.02,1.01,5.74,1.01c8.76,0,39.4,2.5,41.42-1.25s-2.7-8.44-2.36-17.81
			c0.34-9.38,8.42-42.81,5.05-57.81c2.93-14.14,7.65-47.46,8.82-55.86c-11.7-0.07-23.4,0.23-35.08,0.9v15.51c8.15,1,16.29,2,24.44,3
			c-1.58,7.37-2.9,14.79-3.95,22.26c-0.49,3.44-0.92,6.92-0.55,10.38c0.35,3.23,1.39,6.34,1.9,9.55c0.93,5.8,0.09,11.72-0.52,17.56
			c-1.24,12.01-1.68,24.64-7.75,35.08c-0.54,0.93-1.14,1.91-1.08,2.98c0.21,3.47,6.18,3.34,7.53,6.54c0.7,1.64-0.21,3.62-1.63,4.7
			c-1.43,1.08-3.25,1.46-5.01,1.77C781.638,403.36,769.248,403.36,756.858,402.72z"/>
		<path style="fill:#502960;" d="M778.038,280.62l37.71,2.18l2.69-15.93l5.39-0.94l2.69,17.19c0,0,28.96-0.63,35.36-4.07
			c0.35-6.94-0.38-17.45-1.17-25.97c-0.73-7.97-1.51-14.21-1.51-14.21c-59.23,2.81-56.32,2.81-77.48,1.25
			c-0.25,1.99-0.6,5.45-0.99,9.53C779.558,262.19,778.038,280.62,778.038,280.62z"/>
		<path style="opacity:0.2;fill:#502960;" d="M780.728,249.65c5.31,3.8,11.49,6.53,17.84,8.09c12.74,3.13,26.13,2.12,39.11,0.18
			c7.77-1.16,15.5-2.66,23.03-4.84c-0.73-7.97-1.51-14.21-1.51-14.21c-59.23,2.81-56.32,2.81-77.48,1.25
			C781.468,242.11,781.118,245.57,780.728,249.65z"/>
		<path style="fill:#FFFFFF;" d="M784.538,216.87l-6.12,24.64c0,0,2.14,2.77,9.15,5.49c5.54,2.15,14.11,4.26,27.06,4.97
			c19.33,1.06,33.44-1.54,40.82-3.44c3.84-0.99,5.86-1.79,5.86-1.79l-2.82-32.59c0,0,6.44-29.77,7.64-33.8
			c-8.35-3.16-12.34-14.72-14.21-26.25c0-0.01,0-0.01,0-0.01c-2.18-13.45-1.234-26.244-1.234-26.244l-5.114-0.974
			c0,0,5.268,45.028-24.902,43.828c-30.18-1.21-24.55-43.46-24.55-43.46s-2.01-0.8-4.83,1.21c1.78,11.77,1.44,21.22,0.02,28.72
			c-3.73,19.67-14.9,26-14.9,26L784.538,216.87z"/>
		<path style="fill:#DAE8FF;" d="M861.228,188.63c-3.33,15.3-6.99,30.59-6.99,30.59s0.81,13.95,1.21,29.31
			c3.84-0.99,5.86-1.79,5.86-1.79l-2.82-32.59c0,0,6.44-29.77,7.64-33.8c-8.35-3.16-12.34-14.72-14.21-26.25
			C851.108,162.14,850.968,178.62,861.228,188.63z"/>
		<path style="fill:#DAE8FF;" d="M784.538,216.87l-6.12,24.64c0,0,2.14,2.77,9.15,5.49c0.42-14.75,1.17-27.78,1.17-27.78
			s-3.66-15.29-6.98-30.59c9.08-8.87,10-22.81,9.55-31.46c-3.73,19.67-14.9,26-14.9,26L784.538,216.87z"/>
		<path style="fill:#DAE8FF;" d="M846.26,201.6c0,0-7.316,22.613-52.542,22.613C812.008,219.89,846.26,201.6,846.26,201.6z"/>
		<path style="fill:#451D3A;" d="M820.716,102.993c-0.875,0-1.904-0.124-3.056-0.481c-0.264-0.082-0.411-0.362-0.329-0.626
			c0.082-0.264,0.359-0.412,0.626-0.329c3.269,1.015,5.444-0.076,5.465-0.087c0.243-0.127,0.546-0.032,0.673,0.213
			c0.127,0.244,0.034,0.544-0.209,0.673C823.816,102.392,822.642,102.993,820.716,102.993z"/>
		<path style="fill:#FAAD49;" d="M832.649,83.6c0.688,0,1.147-0.045,1.216-0.053c0.549-0.058,0.946-0.55,0.888-1.099
			c-0.058-0.549-0.553-0.946-1.099-0.89c-0.055,0.006-5.643,0.548-7.48-2.614c-0.277-0.478-0.891-0.64-1.367-0.363
			c-0.478,0.277-0.64,0.889-0.363,1.367C826.318,83.175,830.551,83.6,832.649,83.6z"/>
		<path style="fill:#451D3A;" d="M820.001,97.055c-0.452,0-2.72-0.065-3.042-1.353c-0.256-1.025,1.709-7.914,2.318-10.001
			c0.077-0.265,0.35-0.42,0.62-0.34c0.265,0.077,0.417,0.355,0.34,0.62c-1.215,4.167-2.411,8.855-2.307,9.486
			c0.083,0.332,1.162,0.586,2.071,0.588c0.276,0,0.5,0.225,0.5,0.5C820.5,96.831,820.276,97.055,820.001,97.055z"/>
		<path style="fill:#FAAD49;" d="M839.969,81.335l-0.365,8.036c0,0-1.948,0.487-2.07-4.992c-0.122-5.479-0.731-12.663-0.731-12.663
			s-20.09,4.14-30.561-3.653c0-2.435,20.942-8.036,26.786-3.653c5.844,4.383,7.792,10.715,7.792,10.715"/>
		<path style="fill:#FAAD49;" d="M802.346,73.786c0,0,1.339,15.341-1.826,15.828c-1.096-5.844-1.096-10.228-1.096-10.228"/>
		<path style="fill:#FAB799;" d="M923.398,96.951c0,0,6.507-0.744,7.808,6.135C933.252,99.926,927.303,93.977,923.398,96.951z"/>
		<path style="fill:#FAB799;" d="M940.874,94.349c0,0-7.251-4.648-12.828-5.205C933.995,92.304,940.874,94.349,940.874,94.349z"/>
		<path style="fill:#FAB799;" d="M854.95,325.652c1.228,0.614,3.068,4.935,0.4,7.736c-2.668,2.801-6.669-2.401-7.203-3.601
			C847.614,328.587,850.681,323.518,854.95,325.652z"/>
		<path style="fill:#FAB799;" d="M784.098,325.652c-1.228,0.614-3.068,4.935-0.4,7.736c2.668,2.801,6.669-2.401,7.203-3.601
			C791.434,328.587,788.366,323.518,784.098,325.652z"/>
	</g>
</g>
</svg>
